<svg width="396" height="223" viewBox="0 0 396 223" fill="none" xmlns="http://www.w3.org/2000/svg">
<g clip-path="url(#clip0_4_47)">
<path fill-rule="evenodd" clip-rule="evenodd" d="M125.044 115.144C129.187 110.586 134.51 107.65 141.643 106.517C176.901 100.954 180.44 134.743 183.101 138.734L189.055 138.528C191.525 134.537 190.427 136.082 190.564 130.622L212.295 130.802C200.03 133.841 193.61 146.666 205.518 160.419L159.917 161.346C197.698 138.786 162.715 93.4339 128.83 117.41C122.602 123.926 117.142 131.704 120.407 144.065C123.535 155.964 130.312 157.56 138.79 163.123C101.475 164.591 31.0429 175.588 0.0385742 186.816C8.43444 186.816 62.404 176.772 86.4392 175.227L106.359 197.659L192.266 175.794C186.531 180.996 130.421 201.934 122.629 207.831C131.931 213.317 140.985 207.805 152.564 204.689C177.257 198.071 228.236 181.64 246.455 178.266L158.682 218.751C156.816 219.961 157.008 219.858 155.856 220.862C186.366 224.494 203.405 224.494 229.608 212.699C241.022 207.574 248.073 202.912 256.25 195.83C260.557 192.096 263.027 189.829 267.28 185.168C270.27 181.923 272.849 176.747 276.855 173.321C285.635 170.205 381.666 186.816 396.044 187.048C382.462 180.764 334.392 172.626 316.091 169.87C286.266 165.415 257.43 162.608 226.837 161.449C237.29 150.401 238.772 137.653 220.883 130.802C230.349 130.055 230.952 129.721 234.711 122.484C237.537 117.024 238.854 111.152 239.568 104.791L212.569 104.534C210.621 72.1099 214.27 81.6645 216.85 72.0069C195.311 72.522 201.375 86.3517 200.853 104.74L187.629 104.405L173.882 65.9806L128.089 65.7231L127.925 102.139C121.834 104.456 120.023 104.791 118.815 110.405C121.175 113.753 120.846 113.316 125.099 115.093L125.044 115.144ZM212.679 138.013C199.29 143.319 207.548 161.346 220.499 156.71C233.504 152.075 226.617 132.502 212.679 138.013ZM140.217 122.87C118.898 134.099 135.497 160.393 154.841 152.307C175.227 143.782 161.536 111.642 140.217 122.87ZM137.857 96.9106L171.962 97.1939L165.487 74.2732L137.692 74.402L137.857 96.9364V96.9106Z" fill="#1E1E1E"/>
<path fill-rule="evenodd" clip-rule="evenodd" d="M127.925 21.092L164.142 39.0164C176.105 43.8839 189.769 42.3386 198.247 32.5008C201.375 28.8695 199.729 31.3676 200.853 28.0712C189.22 20.5511 174.87 20.8344 160.328 18.7741C171.139 13.2629 209.14 23.4355 218.413 27.2213C251.119 40.5616 273.947 65.6199 280.806 99.6145C287.391 132.244 276.087 144.091 275.291 156.401L285.937 156.762C292.879 128.252 296.72 114.5 287.419 85.2956C276.224 50.1162 242.751 23.6673 203.625 15.5292C186.284 11.9237 183.568 -7.64901 155.39 3.32201C145.869 7.03052 141.534 10.2755 134.208 15.6322L127.925 21.1177V21.092Z" fill="#1E1E1E"/>
<path fill-rule="evenodd" clip-rule="evenodd" d="M200.771 53.2583C216.904 55.1899 231.858 58.7181 235.425 42.9827L216.054 46.8457C224.477 41.9525 227.879 43.9098 233.092 38.45C226.535 36.9048 211.828 27.5305 200.744 53.2326L200.771 53.2583Z" fill="#1E1E1E"/>
<path fill-rule="evenodd" clip-rule="evenodd" d="M80.4578 160.985C81.3906 159.518 84.5734 163.638 79.0585 151.122C77.2476 147.001 76.4519 144.761 75.3818 140.408C71.4583 124.647 71.9796 104.482 77.0555 89.0815C79.47 81.7933 85.2593 73.0113 85.3691 66.8047C67.6719 76.4108 63.5837 149.19 80.4578 161.011V160.985Z" fill="#1E1E1E"/>
<path fill-rule="evenodd" clip-rule="evenodd" d="M140.052 141.439C157.585 154.084 164.17 125.626 143.043 130.442C140.107 133.918 139.311 135 140.052 141.439Z" fill="#1E1E1E"/>
</g>
<defs>
<clipPath id="clip0_4_47">
<rect width="396" height="223" fill="white"/>
</clipPath>
</defs>
</svg>
