<svg width="306" height="169" viewBox="0 0 306 169" fill="none" xmlns="http://www.w3.org/2000/svg">
<g clip-path="url(#clip0_46_235)">
<path fill-rule="evenodd" clip-rule="evenodd" d="M96.6245 87.2617C99.826 83.8071 103.939 81.5822 109.452 80.7234C136.696 76.5077 139.431 102.114 141.487 105.14L146.088 104.983C147.996 101.958 147.148 103.129 147.254 98.9916L164.046 99.1282C154.569 101.431 149.608 111.151 158.809 121.573L123.572 122.276C152.767 105.179 125.734 70.8086 99.5504 88.9792C94.7376 93.9171 90.5184 99.8113 93.0414 109.18C95.4584 118.197 100.695 119.407 107.247 123.622C78.4123 124.735 23.9875 133.069 0.0296326 141.578C6.51735 141.578 48.2211 133.967 66.7937 132.795L82.1862 149.795L148.569 133.225C144.137 137.167 100.78 153.035 94.7588 157.504C101.946 161.662 108.943 157.485 117.89 155.123C136.971 150.107 176.364 137.655 190.442 135.099L122.618 165.78C121.176 166.697 121.324 166.619 120.434 167.38C144.01 170.132 157.177 170.132 177.424 161.193C186.244 157.309 191.693 153.777 198.011 148.409C201.34 145.579 203.248 143.862 206.534 140.329C208.845 137.87 210.838 133.947 213.933 131.351C220.718 128.99 294.924 141.578 306.034 141.754C295.539 136.992 258.393 130.824 244.252 128.736C221.206 125.359 198.923 123.232 175.283 122.354C183.361 113.981 184.506 104.32 170.682 99.1282C177.997 98.5622 178.463 98.3085 181.368 92.8241C183.551 88.6865 184.569 84.2365 185.12 79.4157L164.258 79.2206C162.753 54.6483 165.572 61.8892 167.565 54.5703C150.922 54.9606 155.608 65.4414 155.205 79.3767L144.986 79.123L134.364 50.0032L98.9779 49.8081L98.8507 77.4055C94.1439 79.162 92.7446 79.4158 91.8117 83.6705C93.6351 86.2078 93.3807 85.876 96.6669 87.2227L96.6245 87.2617ZM164.343 104.593C153.996 108.614 160.378 122.276 170.385 118.763C180.435 115.249 175.113 100.416 164.343 104.593ZM108.349 93.1169C91.8753 101.626 104.702 121.554 119.65 115.425C135.402 108.965 124.823 84.6073 108.349 93.1169ZM106.526 73.4435L132.879 73.6582L127.876 56.2878L106.398 56.3854L106.526 73.463V73.4435Z" fill="#4DA877"/>
<path fill-rule="evenodd" clip-rule="evenodd" d="M98.8509 15.9846L126.837 29.5687C136.081 33.2574 146.639 32.0864 153.191 24.6308C155.608 21.8789 154.336 23.772 155.205 21.2738C146.215 15.5748 135.127 15.7895 123.89 14.2281C132.244 10.0514 161.608 17.7607 168.774 20.6297C194.046 30.7397 211.686 49.73 216.987 75.4928C222.075 100.221 213.34 109.199 212.725 118.528L220.951 118.802C226.315 97.196 229.284 86.7738 222.096 64.6412C213.446 37.9806 187.58 17.9364 157.346 11.7689C143.947 9.03649 141.848 -5.79663 120.074 2.51772C112.717 5.32821 109.367 7.78739 103.706 11.847L98.8509 16.0042V15.9846Z" fill="#4DA877"/>
<path fill-rule="evenodd" clip-rule="evenodd" d="M155.141 40.3617C167.608 41.8255 179.163 44.4994 181.919 32.5743L166.951 35.5019C173.46 31.7936 176.089 33.2769 180.117 29.1393C175.05 27.9682 163.686 20.864 155.12 40.3422L155.141 40.3617Z" fill="#4DA877"/>
<path fill-rule="evenodd" clip-rule="evenodd" d="M62.172 122.002C62.8928 120.89 65.3522 124.013 61.0907 114.527C59.6914 111.405 59.0765 109.707 58.2497 106.408C55.2178 94.4636 55.6206 79.1816 59.543 67.5102C61.4087 61.9868 65.8823 55.3315 65.9671 50.6278C52.292 57.9077 49.1329 113.064 62.172 122.022V122.002Z" fill="#4DA877"/>
<path fill-rule="evenodd" clip-rule="evenodd" d="M108.222 107.189C121.77 116.772 126.858 95.2052 110.533 98.855C108.264 101.49 107.65 102.31 108.222 107.189Z" fill="#4DA877"/>
</g>
<defs>
<clipPath id="clip0_46_235">
<rect width="306" height="169" fill="white"/>
</clipPath>
</defs>
</svg>
